<svg width="150" height="100" viewBox="0 0 150 100" fill="none" xmlns="http://www.w3.org/2000/svg">
<path d="M75 53C94.33 53 110 42.4787 110 29.5C110 16.5213 94.33 6 75 6C55.67 6 40 16.5213 40 29.5C40 42.4787 55.67 53 75 53Z" fill="black"/>
<path fill-rule="evenodd" clip-rule="evenodd" d="M75 76C105.376 76 130 59.6584 130 39.5C130 19.3416 105.376 3 75 3C44.6243 3 20 19.3416 20 39.5C20 59.6584 44.6243 76 75 76ZM120 36C120 52.5685 99.8528 66 75 66C50.1472 66 30 52.5685 30 36C30 19.4315 50.1472 6 75 6C99.8528 6 120 19.4315 120 36Z" fill="black"/>
<path fill-rule="evenodd" clip-rule="evenodd" d="M150 50C150 77.6142 116.421 100 75 100C33.5786 100 0 77.6142 0 50C0 22.3858 33.5786 0 75 0C116.421 0 150 22.3858 150 50ZM140 46.5C140 70.5244 110.899 90 75 90C39.1015 90 10 70.5244 10 46.5C10 22.4756 39.1015 3 75 3C110.899 3 140 22.4756 140 46.5Z" fill="black"/>
</svg>
