<svg width="150" height="100" viewBox="0 0 150 100" fill="none" xmlns="http://www.w3.org/2000/svg">
<path fill-rule="evenodd" clip-rule="evenodd" d="M0 0H150V70L75 100L0 70V0ZM98.3333 29.765C98.3333 38.4607 87.8866 45.51 75 45.51C62.1134 45.51 51.6667 38.4607 51.6667 29.765C51.6667 21.0693 62.1134 14.02 75 14.02C87.8866 14.02 98.3333 21.0693 98.3333 29.765ZM105 34.12C105 23.0191 91.5685 14.02 75 14.02C58.4315 14.02 45 23.0191 45 34.12C45 45.2209 58.4315 54.22 75 54.22C91.5685 54.22 105 45.2209 105 34.12ZM75 60.92C95.2504 60.92 111.667 49.9711 111.667 36.465C111.667 22.9589 95.2504 12.01 75 12.01C98.9323 12.01 118.333 25.0587 118.333 41.155C118.333 57.2513 98.9323 70.3 75 70.3C51.0677 70.3 31.6667 57.2513 31.6667 41.155C31.6667 25.0587 51.0677 12.01 75 12.01C54.7496 12.01 38.3333 22.9589 38.3333 36.465C38.3333 49.9711 54.7496 60.92 75 60.92ZM75 77C102.614 77 125 62.0015 125 43.5C125 24.9985 102.614 10 75 10C47.3858 10 25 24.9985 25 43.5C25 62.0015 47.3858 77 75 77Z" fill="black"/>
</svg>
