<svg width="150" height="100" viewBox="0 0 150 100" fill="none" xmlns="http://www.w3.org/2000/svg">
<path d="M125 100H150L140 90H115L125 100Z" fill="black"/>
<path d="M135 85L125 75H100L110 85H135Z" fill="black"/>
<path d="M120 70L110 60H85L95 70H120Z" fill="black"/>
<path d="M110 40L120 30H95L85 40H110Z" fill="black"/>
<path d="M110 15L100 25H125L135 15H110Z" fill="black"/>
<path d="M140 10L150 0H125L115 10H140Z" fill="black"/>
<path d="M105 45H80L75 50L80 55H105L100 50L105 45Z" fill="black"/>
<path d="M90 90H85H40L50 100H95H100H120L110 90H90Z" fill="black"/>
<path d="M35 85H80H85H105L95 75H75H70H25L35 85Z" fill="black"/>
<path d="M20 70H65H70H90L80 60H60H55H10L20 70Z" fill="black"/>
<path d="M5 55H50H55H75L70 50L75 45H55H50H5L0 50L5 55Z" fill="black"/>
<path d="M10 40H55H60H80L90 30H70H65H20L10 40Z" fill="black"/>
<path d="M25 25H70H75H95L105 15H85H80H35L25 25Z" fill="black"/>
<path d="M50 0H95H100H120L110 10H90H85H40L50 0Z" fill="black"/>
</svg>
