<svg width="4179" height="1024" viewBox="0 0 4179 1024" fill="none" xmlns="http://www.w3.org/2000/svg">
<path d="M230.908 475.56L282.211 334.606L0.302734 232L47.6967 408.877L230.908 475.56Z" fill="url(#paint0_linear_16_3)"/>
<path d="M229.008 603.548L263.211 509.579L32.3704 425.56L63.9664 543.478L229.008 603.548Z" fill="url(#paint1_linear_16_3)"/>
<path d="M230.908 475.56L282.211 334.606L0.302734 232L47.6967 408.877L230.908 475.56Z" fill="url(#paint2_linear_16_3)"/>
<path d="M795.202 603.548L761 509.579L991.84 425.56L960.244 543.478L795.202 603.548Z" fill="url(#paint3_linear_16_3)"/>
<path d="M793.303 475.56L742 334.606L1023.91 232L976.514 408.877L793.303 475.56Z" fill="url(#paint4_linear_16_3)"/>
<path d="M512 0L428.666 144.444H262L349.436 296L389.01 273.152L341 190.014H457.666L512 93L574.333 190.014H691L640.989 276.615L674.564 296L762 144.444H595.333L512 0Z" fill="url(#paint5_linear_16_3)"/>
<path fill-rule="evenodd" clip-rule="evenodd" d="M812 574C812 739.685 677.685 874 512 874C346.314 874 212 739.685 212 574C212 408.315 346.314 274 512 274C677.685 274 812 408.315 812 574ZM512.5 643.5C567.728 643.5 612.5 598.728 612.5 543.5C612.5 488.272 567.728 443.5 512.5 443.5C457.271 443.5 412.5 488.272 412.5 543.5C412.5 598.728 457.271 643.5 512.5 643.5ZM761.265 549.5C748.722 423.167 642.133 324.5 512.5 324.5C382.866 324.5 276.277 423.167 263.734 549.5L364.574 518.5C376.476 447.557 438.175 393.5 512.5 393.5C586.825 393.5 648.524 447.557 660.426 518.5L761.265 549.5ZM263.734 599.5L364.574 568.5C376.476 639.443 438.175 693.5 512.5 693.5C586.825 693.5 648.524 639.443 660.426 568.5L761.265 599.5C748.722 725.833 642.133 824.5 512.5 824.5C382.866 824.5 276.277 725.833 263.734 599.5Z" fill="url(#paint6_linear_16_3)"/>
<path d="M512 224C705.299 224 862 380.7 862 574C862 641.909 842.66 705.3 809.187 758.967L722.503 708.921C747.501 670 762 623.693 762 574C762 435.929 650.071 324 512 324C373.929 324 262 435.929 262 574C262 623.693 276.498 670 301.496 708.921L214.813 758.967C181.34 705.3 162 641.909 162 574C162 380.7 318.7 224 512 224Z" fill="url(#paint7_linear_16_3)"/>
<path d="M484.372 976.328L511.932 1024L539.437 976.426L587 948.932L539.315 921.364L511.932 874L484.482 921.482L437 948.932C437 948.932 465.869 965.631 484.372 976.328Z" fill="url(#paint8_linear_16_3)"/>
<path d="M678.689 924.436L711.428 941.043L709.488 904.46L726.059 871.798L689.39 873.742L656.863 857.242L658.799 893.755L642.258 926.363C642.258 926.363 664.461 925.191 678.689 924.436Z" fill="url(#paint9_linear_16_3)"/>
<path d="M787.631 853.501L820.369 870.108L818.429 833.525L835 800.863L798.332 802.807L765.804 786.307L767.74 822.82L751.199 855.428C751.199 855.428 773.403 854.256 787.631 853.501Z" fill="url(#paint10_linear_16_3)"/>
<path d="M345.618 924.436L312.879 941.043L314.82 904.46L298.248 871.798L334.917 873.742L367.445 857.242L365.508 893.755L382.05 926.363C382.05 926.363 359.846 925.191 345.618 924.436Z" fill="url(#paint11_linear_16_3)"/>
<path d="M236.677 853.501L203.938 870.108L205.878 833.525L189.307 800.863L225.976 802.807L258.504 786.307L256.567 822.82L273.108 855.428C273.108 855.428 250.905 854.256 236.677 853.501Z" fill="url(#paint12_linear_16_3)"/>
<path d="M1334.94 676.088C1334.94 699.363 1323.3 711 1300.03 711H1180.88C1158.26 711 1146.95 699.363 1146.95 676.088V364.076C1146.95 340.639 1158.26 328.92 1180.88 328.92H1300.03C1323.3 328.92 1334.94 340.639 1334.94 364.076V453.432H1278.05V377.992H1204.08V661.928H1278.05V581.605H1334.94V676.088ZM1541.48 711H1485.33V511.049L1432.84 512.025V711H1376.93V328.92H1432.84V473.451C1445.86 471.498 1458.88 469.464 1471.9 467.348C1488.34 464.743 1501.36 463.441 1510.96 463.441C1531.31 463.441 1541.48 473.451 1541.48 493.471V711ZM1740.46 711H1686.99V702.455C1674.29 704.408 1661.6 706.361 1648.9 708.314C1632.3 710.756 1619.69 711.977 1611.06 711.977C1590.72 711.977 1580.54 701.967 1580.54 681.947V593.08C1580.54 572.735 1591.04 562.562 1612.04 562.562H1687.48V505.922H1634.01V541.078H1583.47V494.936C1583.47 474.59 1593.97 464.418 1614.97 464.418H1709.45C1730.12 464.418 1740.46 474.59 1740.46 494.936V711ZM1687.48 666.566V600.404H1634.01V668.52L1687.48 666.566ZM2052.71 711H1997.29V511.049L1944.8 512.025V711H1889.14V511.049L1836.65 512.025V711H1780.74V464.418H1836.65V473.451C1849.67 471.335 1862.61 469.219 1875.46 467.104C1891.25 464.662 1904.35 463.441 1914.77 463.441C1927.63 463.441 1935.93 467.104 1939.67 474.428C1953.35 472.312 1967.02 470.115 1980.69 467.836C1998.76 464.906 2012.59 463.441 2022.19 463.441C2042.54 463.441 2052.71 473.451 2052.71 493.471V711ZM2257.3 661.439C2257.3 681.459 2250.14 695.456 2235.82 703.432C2225.4 709.128 2209.61 711.977 2188.45 711.977C2183.57 711.977 2176.65 711.814 2167.7 711.488C2158.91 711.163 2152.56 711 2148.66 711V801.088H2092.75V464.418H2148.66V473.451C2161.68 471.498 2174.7 469.464 2187.72 467.348C2204.16 464.743 2217.18 463.441 2226.78 463.441C2247.13 463.441 2257.3 473.451 2257.3 493.471V661.439ZM2201.15 646.059V511.049L2148.66 512.025V664.613H2183.33C2195.21 664.613 2201.15 658.428 2201.15 646.059ZM2353.74 429.018H2297.83V371.4H2353.74V429.018ZM2353.25 711H2298.32V464.418H2353.25V711ZM2557.59 680.482C2557.59 700.827 2547.26 711 2526.59 711H2426.49C2405.49 711 2395 700.827 2395 680.482V494.936C2395 474.59 2405.49 464.418 2426.49 464.418H2526.59C2547.26 464.418 2557.59 474.59 2557.59 494.936V680.482ZM2502.91 664.613V511.049H2449.93V664.613H2502.91ZM2762.67 711H2706.52V511.049L2654.03 512.025V711H2598.12V464.418H2654.03V473.451C2667.05 471.335 2679.99 469.301 2692.85 467.348C2708.8 464.743 2721.9 463.441 2732.15 463.441C2752.5 463.441 2762.67 473.451 2762.67 493.471V711ZM2993.63 676.088C2993.63 699.363 2981.99 711 2958.72 711H2839.58C2816.95 711 2805.64 699.363 2805.64 676.088V364.076C2805.64 340.639 2816.95 328.92 2839.58 328.92H2958.72C2981.99 328.92 2993.63 340.639 2993.63 364.076V453.432H2936.74V377.992H2862.77V661.928H2936.74V581.605H2993.63V676.088ZM3191.14 567.445H3135.72V511.049L3091.53 512.025V711H3035.62V464.418H3091.53V473.451C3103.09 471.335 3114.56 469.219 3125.95 467.104C3139.79 464.662 3151.34 463.441 3160.62 463.441C3180.97 463.441 3191.14 473.451 3191.14 493.471V567.445ZM3382.06 680.482C3382.06 700.827 3371.56 711 3350.56 711H3254.13C3233.13 711 3222.63 700.827 3222.63 680.482V494.936C3222.63 474.59 3233.13 464.418 3254.13 464.418H3350.56C3371.56 464.418 3382.06 474.59 3382.06 494.936V585.512L3366.68 600.893H3276.1V669.984H3328.59V628.969H3382.06V680.482ZM3328.59 564.516V505.434H3276.1V564.516H3328.59ZM3581.76 711H3528.3V702.455C3515.6 704.408 3502.91 706.361 3490.21 708.314C3473.61 710.756 3461 711.977 3452.37 711.977C3432.02 711.977 3421.85 701.967 3421.85 681.947V593.08C3421.85 572.735 3432.35 562.562 3453.35 562.562H3528.79V505.922H3475.32V541.078H3424.78V494.936C3424.78 474.59 3435.28 464.418 3456.28 464.418H3550.76C3571.43 464.418 3581.76 474.59 3581.76 494.936V711ZM3528.79 666.566V600.404H3475.32V668.52L3528.79 666.566ZM3728.49 711H3666.48C3645.81 711 3635.47 700.827 3635.47 680.482V512.025H3609.11V464.418H3635.47V397.523H3691.14V464.418H3727.03V512.025H3691.14V663.393H3728.49V711ZM3922.34 680.482C3922.34 700.827 3912 711 3891.33 711H3791.24C3770.24 711 3759.74 700.827 3759.74 680.482V494.936C3759.74 474.59 3770.24 464.418 3791.24 464.418H3891.33C3912 464.418 3922.34 474.59 3922.34 494.936V680.482ZM3867.65 664.613V511.049H3814.67V664.613H3867.65ZM4118.38 567.445H4062.96V511.049L4018.78 512.025V711H3962.87V464.418H4018.78V473.451C4030.33 471.335 4041.81 469.219 4053.2 467.104C4067.03 464.662 4078.59 463.441 4087.87 463.441C4108.21 463.441 4118.38 473.451 4118.38 493.471V567.445Z" fill="url(#paint13_linear_16_3)"/>
<defs>
<linearGradient id="paint0_linear_16_3" x1="512" y1="0" x2="512" y2="1024" gradientUnits="userSpaceOnUse">
<stop stop-color="#E9A900"/>
<stop offset="0.25" stop-color="#FFE435"/>
<stop offset="0.5" stop-color="#FFFC9A"/>
<stop offset="0.75" stop-color="#FFE435"/>
<stop offset="1" stop-color="#E9A900"/>
</linearGradient>
<linearGradient id="paint1_linear_16_3" x1="512" y1="0" x2="512" y2="1024" gradientUnits="userSpaceOnUse">
<stop stop-color="#E9A900"/>
<stop offset="0.25" stop-color="#FFE435"/>
<stop offset="0.5" stop-color="#FFFC9A"/>
<stop offset="0.75" stop-color="#FFE435"/>
<stop offset="1" stop-color="#E9A900"/>
</linearGradient>
<linearGradient id="paint2_linear_16_3" x1="512" y1="0" x2="512" y2="1024" gradientUnits="userSpaceOnUse">
<stop stop-color="#E9A900"/>
<stop offset="0.25" stop-color="#FFE435"/>
<stop offset="0.5" stop-color="#FFFC9A"/>
<stop offset="0.75" stop-color="#FFE435"/>
<stop offset="1" stop-color="#E9A900"/>
</linearGradient>
<linearGradient id="paint3_linear_16_3" x1="512" y1="0" x2="512" y2="1024" gradientUnits="userSpaceOnUse">
<stop stop-color="#E9A900"/>
<stop offset="0.25" stop-color="#FFE435"/>
<stop offset="0.5" stop-color="#FFFC9A"/>
<stop offset="0.75" stop-color="#FFE435"/>
<stop offset="1" stop-color="#E9A900"/>
</linearGradient>
<linearGradient id="paint4_linear_16_3" x1="512" y1="0" x2="512" y2="1024" gradientUnits="userSpaceOnUse">
<stop stop-color="#E9A900"/>
<stop offset="0.25" stop-color="#FFE435"/>
<stop offset="0.5" stop-color="#FFFC9A"/>
<stop offset="0.75" stop-color="#FFE435"/>
<stop offset="1" stop-color="#E9A900"/>
</linearGradient>
<linearGradient id="paint5_linear_16_3" x1="512" y1="0" x2="512" y2="1024" gradientUnits="userSpaceOnUse">
<stop stop-color="#E9A900"/>
<stop offset="0.25" stop-color="#FFE435"/>
<stop offset="0.5" stop-color="#FFFC9A"/>
<stop offset="0.75" stop-color="#FFE435"/>
<stop offset="1" stop-color="#E9A900"/>
</linearGradient>
<linearGradient id="paint6_linear_16_3" x1="512" y1="0" x2="512" y2="1024" gradientUnits="userSpaceOnUse">
<stop stop-color="#E9A900"/>
<stop offset="0.25" stop-color="#FFE435"/>
<stop offset="0.5" stop-color="#FFFC9A"/>
<stop offset="0.75" stop-color="#FFE435"/>
<stop offset="1" stop-color="#E9A900"/>
</linearGradient>
<linearGradient id="paint7_linear_16_3" x1="512" y1="0" x2="512" y2="1024" gradientUnits="userSpaceOnUse">
<stop stop-color="#E9A900"/>
<stop offset="0.25" stop-color="#FFE435"/>
<stop offset="0.5" stop-color="#FFFC9A"/>
<stop offset="0.75" stop-color="#FFE435"/>
<stop offset="1" stop-color="#E9A900"/>
</linearGradient>
<linearGradient id="paint8_linear_16_3" x1="511.985" y1="874" x2="511.985" y2="1049.74" gradientUnits="userSpaceOnUse">
<stop stop-color="#E9A900"/>
<stop offset="0.25" stop-color="#FFE435"/>
<stop offset="0.5" stop-color="#FFFC9A"/>
<stop offset="0.75" stop-color="#FFE435"/>
<stop offset="1" stop-color="#E9A900"/>
</linearGradient>
<linearGradient id="paint9_linear_16_3" x1="711.351" y1="821.763" x2="775.282" y2="919.946" gradientUnits="userSpaceOnUse">
<stop stop-color="#E9A900"/>
<stop offset="0.25" stop-color="#FFE435"/>
<stop offset="0.5" stop-color="#FFFC9A"/>
<stop offset="0.75" stop-color="#FFE435"/>
<stop offset="1" stop-color="#E9A900"/>
</linearGradient>
<linearGradient id="paint10_linear_16_3" x1="711.351" y1="821.763" x2="775.282" y2="919.946" gradientUnits="userSpaceOnUse">
<stop stop-color="#E9A900"/>
<stop offset="0.25" stop-color="#FFE435"/>
<stop offset="0.5" stop-color="#FFFC9A"/>
<stop offset="0.75" stop-color="#FFE435"/>
<stop offset="1" stop-color="#E9A900"/>
</linearGradient>
<linearGradient id="paint11_linear_16_3" x1="312.956" y1="821.763" x2="249.026" y2="919.946" gradientUnits="userSpaceOnUse">
<stop stop-color="#E9A900"/>
<stop offset="0.25" stop-color="#FFE435"/>
<stop offset="0.5" stop-color="#FFFC9A"/>
<stop offset="0.75" stop-color="#FFE435"/>
<stop offset="1" stop-color="#E9A900"/>
</linearGradient>
<linearGradient id="paint12_linear_16_3" x1="312.956" y1="821.763" x2="249.026" y2="919.946" gradientUnits="userSpaceOnUse">
<stop stop-color="#E9A900"/>
<stop offset="0.25" stop-color="#FFE435"/>
<stop offset="0.5" stop-color="#FFFC9A"/>
<stop offset="0.75" stop-color="#FFE435"/>
<stop offset="1" stop-color="#E9A900"/>
</linearGradient>
<linearGradient id="paint13_linear_16_3" x1="2651.19" y1="212" x2="2651.19" y2="913.803" gradientUnits="userSpaceOnUse">
<stop stop-color="#E9A900"/>
<stop offset="0.25" stop-color="#FFE435"/>
<stop offset="0.5" stop-color="#FFFC9A"/>
<stop offset="0.75" stop-color="#FFE435"/>
<stop offset="1" stop-color="#E9A900"/>
</linearGradient>
</defs>
</svg>
