<svg width="130" height="130" viewBox="0 0 130 130" fill="none" xmlns="http://www.w3.org/2000/svg">
<path d="M70.0688 83.5307C68.8889 80.92 67.6507 78.3536 66.3563 75.8342L85.9135 55.0051C87.7556 56.9178 89.5566 58.8805 91.3234 60.8926L70.0688 83.5307Z" fill="url(#paint0_radial_10_115)"/>
<path d="M76.5163 99.9646C75.5624 97.124 74.543 94.3245 73.4605 91.5687L96.4874 67.0435C98.1648 69.1366 99.8029 71.2761 101.4 73.4604L76.5163 99.9646Z" fill="url(#paint1_radial_10_115)"/>
<path d="M80.427 113.285C80.0416 111.76 79.6379 110.244 79.2163 108.739L106.072 80.1526C116.013 95.0718 124.129 111.848 130 130C114.64 121.343 97.9495 115.581 80.427 113.285Z" fill="url(#paint2_radial_10_115)"/>
<path d="M0 130C15.3602 121.343 32.0505 115.581 49.573 113.285C53.1889 98.9749 58.4181 85.5306 65 73.2496C69.5396 64.7792 74.7226 56.8622 80.4637 49.5963C94.1796 32.2372 111.08 18.5943 130 10C109.462 12.6775 90.0904 20.0978 72.6366 31.3781L65 10.2462L57.3634 31.3781C39.9161 20.1069 20.5282 12.6762 0 10C18.9197 18.5943 35.8204 32.2372 49.5363 49.5963C27.6021 70.3965 10.3277 98.0682 0 130Z" fill="url(#paint3_radial_10_115)"/>
<defs>
<radialGradient id="paint0_radial_10_115" cx="0" cy="0" r="1" gradientUnits="userSpaceOnUse" gradientTransform="translate(65 22.9231) rotate(90) scale(83.0769 90)">
<stop stop-color="white"/>
<stop offset="1" stop-color="#F00867"/>
</radialGradient>
<radialGradient id="paint1_radial_10_115" cx="0" cy="0" r="1" gradientUnits="userSpaceOnUse" gradientTransform="translate(65 22.9231) rotate(90) scale(83.0769 90)">
<stop stop-color="white"/>
<stop offset="1" stop-color="#F00867"/>
</radialGradient>
<radialGradient id="paint2_radial_10_115" cx="0" cy="0" r="1" gradientUnits="userSpaceOnUse" gradientTransform="translate(65 22.9231) rotate(90) scale(83.0769 90)">
<stop stop-color="white"/>
<stop offset="1" stop-color="#F00867"/>
</radialGradient>
<radialGradient id="paint3_radial_10_115" cx="0" cy="0" r="1" gradientUnits="userSpaceOnUse" gradientTransform="translate(65 22.9231) rotate(90) scale(83.0769 90)">
<stop stop-color="white"/>
<stop offset="1" stop-color="#F00867"/>
</radialGradient>
</defs>
</svg>
