<svg width="130" height="130" viewBox="0 0 130 130" fill="none" xmlns="http://www.w3.org/2000/svg">
<path d="M71.8401 0.477027C65.576 1.40386 55.9211 4.58984 48.3352 8.29718C32.4736 15.8856 22.0142 26.0808 17.1293 38.651C15.6926 42.4162 15.2903 44.3858 15.0604 49.1358C14.7731 56.145 15.4627 59.8523 18.1638 65.2975C22.3016 73.6969 28.4508 79.7792 42.186 88.9897C52.1282 95.6513 57.99 101.502 61.1508 107.932C63.6795 113.145 64.1967 116.679 63.2197 123.572C62.76 127.279 62.7025 129.017 63.1623 129.481C64.1967 130.523 68.8517 129.944 74.0814 128.206C91.3222 122.356 105.632 111.813 111.092 100.865C113.908 95.1299 115 90.6695 115 84.4134C115.057 70.2792 108.506 60.3736 88.7936 44.965C77.2423 35.9284 73.6217 30.2515 73.5642 21.2728C73.5642 16.0015 74.3688 12.4679 76.8974 6.96486C80.1157 -0.160175 79.656 -0.681515 71.8401 0.477027ZM61.3807 18.782C60.9784 22.3735 61.9554 29.2668 63.2772 32.9162C63.9668 34.7119 64.3691 36.276 64.1967 36.3918C63.5646 37.029 41.3814 27.4131 41.3814 26.5442C41.3814 25.4436 58.7371 16.3491 60.8635 16.3491C61.4382 16.3491 61.5531 16.9862 61.3807 18.782ZM40.2895 38.5351C49.4846 43.0534 60.2313 47.2242 69.8287 50.0047C77.5871 52.2059 78.0468 52.4376 83.2765 56.4346C88.1614 60.1999 97.9887 69.5261 97.5289 69.9896C96.9543 70.5688 70.4034 62.9804 60.0589 59.273C48.9099 55.2761 29.2554 47.1083 27.991 45.8919C27.0141 45.023 32.1288 34.4223 33.2207 35.0016C33.4506 35.1174 36.6114 36.7394 40.2895 38.5351ZM50.0018 67.3249C64.8864 73.0018 85.6328 79.0262 99.5978 81.8067L102.874 82.4439V85.514C102.874 89.1055 101.379 94.5507 100.402 94.5507C98.8507 94.5507 81.6674 90.3799 74.2539 88.2366C59.7716 84.0659 53.2201 81.3433 45.9789 76.4774C38.7953 71.7274 33.0483 66.456 30.4047 62.2273C29.4852 60.7792 28.7381 59.3889 28.7381 59.0993C28.7381 58.8676 31.4967 59.8523 34.9448 61.3005C38.3355 62.8066 45.1169 65.4712 50.0018 67.3249ZM82.2996 101.792C87.6442 103.124 92.0694 104.34 92.2418 104.514C92.9889 105.209 77.9894 114.246 76.0354 114.246C75.7481 114.246 75.1159 112.74 74.7711 110.886C74.3688 109.09 73.1619 105.673 72.07 103.298C70.9781 100.923 70.1161 98.8952 70.1161 98.7793C70.1161 98.6635 70.6908 98.7214 71.4379 98.9531C72.1275 99.1848 77.0124 100.459 82.2996 101.792Z" fill="#555555"/>
</svg>
