<svg version="1.1" id="_x32_" xmlns="http://www.w3.org/2000/svg" viewBox="0 0 512 512" xml:space="preserve">
<path d="M256,0C114.613,0,0,114.613,0,256s114.613,256,256,256s256-114.613,256-256S397.387,0,256,0z M375.451,262.298L259.395,384.29c-0.887,0.927-2.113,1.452-3.395,1.452c-1.282,0-2.508-0.524-3.395-1.452L136.54,262.298c-11.226-11.791-10.766-30.436,1.032-41.654c11.79-11.218,30.452-10.75,41.653,1.032l47.306,49.726V153.605c0-16.282,13.186-29.468,29.468-29.468c16.282,0,29.46,13.186,29.46,29.468v117.798l47.314-49.726c11.193-11.782,29.863-12.25,41.645-1.032C386.217,231.862,386.686,250.508,375.451,262.298z" fill="#b56cff"/>
</svg>
