<svg version="1.1" id="_x32_" xmlns="http://www.w3.org/2000/svg" viewBox="0 0 512 512" xml:space="preserve">
<path d="M256,0C114.613,0,0,114.613,0,256s114.613,256,256,256c141.387,0,256-114.613,256-256S397.387,0,256,0z M358.395,285.46H240.596l49.726,47.314c11.782,11.194,12.25,29.863,1.032,41.646c-11.218,11.798-29.863,12.266-41.653,1.032L127.709,259.396c-0.927-0.888-1.452-2.113-1.452-3.396c0-1.282,0.524-2.508,1.452-3.395L249.702,136.54c11.79-11.226,30.435-10.766,41.653,1.032c11.218,11.79,10.75,30.452-1.032,41.653l-49.726,47.307h117.799c16.282,0,29.467,13.185,29.467,29.467S374.678,285.46,358.395,285.46z" fill="#00d8f0"/>
</svg>
