<svg version="1.1" id="_x32_" xmlns="http://www.w3.org/2000/svg" viewBox="0 0 512 512" xml:space="preserve">
<path d="M256,0C114.613,0,0,114.614,0,256c0,141.387,114.613,256,256,256s256-114.613,256-256C512,114.614,397.387,0,256,0z M374.427,291.355c-11.79,11.218-30.452,10.75-41.653-1.032l-47.306-49.726v117.799c0,16.282-13.185,29.467-29.468,29.467c-16.282,0-29.46-13.186-29.46-29.467V240.597l-47.314,49.726c-11.194,11.783-29.864,12.25-41.645,1.032c-11.798-11.218-12.267-29.863-1.032-41.653L252.605,127.71c0.887-0.927,2.113-1.452,3.395-1.452c1.282,0,2.508,0.524,3.396,1.452L375.46,249.702C386.686,261.492,386.226,280.138,374.427,291.355z" fill="#00d8f0"/>
</svg>
