<svg xmlns="http://www.w3.org/2000/svg" viewBox="0 0 512 512">
  <path fill="#fff" d="M407.813 212.719h-9.5v-70.406c.016-39.203-15.984-74.969-41.688-100.625C330.969 15.969 295.203-.016 256 0c-39.203-.016-75 15.969-100.625 41.688-25.703 25.656-41.703 61.422-41.672 100.625v70.406h-9.516c-34.453 0-62.375 27.938-62.375 62.375v174.531C41.812 484.063 69.734 512 104.187 512h303.625c34.453 0 62.375-27.937 62.375-62.375V275.094c.001-34.438-27.921-62.375-62.374-62.375ZM175.313 142.313c.016-22.391 8.984-42.375 23.625-57.063C213.641 70.594 233.625 61.625 256 61.625s42.359 8.969 57.047 23.625c14.656 14.688 23.625 34.672 23.641 57.063v70.406H175.313v-70.406Zm98.718 239.359 9.828 63.703h-55.718l9.813-63.703c-15.5-6.922-26.328-22.422-26.328-40.484 0-24.5 19.859-44.375 44.375-44.375 24.5 0 44.375 19.875 44.375 44.375-.001 18.062-10.845 33.562-26.345 40.484Z"/>
</svg>
