<svg width="1024" height="1024" viewBox="0 0 1024 1024" fill="none" xmlns="http://www.w3.org/2000/svg">
<g clip-path="url(#clip0_3_3)">
<g clip-path="url(#clip1_3_3)">
<path d="M509.208 623.492L205.028 437.868L0 601.872L298.212 794.222L509.208 623.492Z" fill="white"/>
<path d="M512 658.636L300.13 830.086L197.766 764.04V855.356L512 1024.24L826.252 855.356V764.04L723.856 830.086L512 658.636Z" fill="white"/>
<path d="M514.808 623.492L725.788 794.222L1024 601.872L818.972 437.868L514.808 623.492Z" fill="white"/>
<path d="M511.998 154.66C542.888 154.66 570.632 168.072 589.657 189.367C600.439 201.434 608.42 216.033 612.587 232.157H770.295C764.936 178.543 743.109 129.745 709.916 90.8539C662.305 35.0681 591.31 -0.335011 511.998 -0.335011C432.684 -0.335011 361.678 35.0549 314.057 90.8305C280.851 129.723 259.016 178.528 253.665 232.157H411.424C415.593 216.038 423.573 201.441 434.352 189.374C453.374 168.077 481.111 154.66 511.998 154.66Z" fill="white"/>
<path d="M511.998 361.32C472.851 361.32 438.77 339.754 421.077 307.917C416.904 300.408 413.642 292.327 411.441 283.822L253.666 283.835C257.446 321.695 269.441 357.151 287.852 388.411C332.917 464.93 416.427 516.315 511.998 516.315C607.567 516.315 691.067 464.926 736.129 388.407C754.54 357.144 766.535 321.685 770.315 283.822H612.521C610.318 292.318 607.057 300.393 602.887 307.898C585.197 339.735 551.138 361.32 511.998 361.32Z" fill="white"/>
<path d="M562 258C562 265.931 560.154 273.43 556.867 280.092C548.711 296.626 531.684 308 512 308C492.316 308 475.289 296.626 467.132 280.091C463.846 273.429 462 265.93 462 258C462 244.577 467.289 232.389 475.898 223.408C484.999 213.912 497.809 208 512 208C526.191 208 539.002 213.912 548.102 223.408C556.711 232.389 562 244.577 562 258Z" fill="white"/>
<path fill-rule="evenodd" clip-rule="evenodd" d="M475.898 223.408L512 252.982L467.132 280.091C463.846 273.429 462 265.93 462 258C462 244.577 467.289 232.389 475.898 223.408ZM434.352 189.374L314.057 90.8305C280.851 129.723 259.016 178.528 253.665 232.157H411.424C415.593 216.038 423.573 201.441 434.352 189.374ZM232.321 124.112L1.496 272.722L209.114 435.984L244.437 414.642C217.464 368.674 202 315.138 202 257.99C202 210.042 212.886 164.638 232.321 124.112ZM287.852 388.411L421.077 307.917C416.904 300.408 413.642 292.327 411.441 283.822L253.666 283.835C257.446 321.695 269.441 357.151 287.852 388.411Z" fill="white"/>
<path fill-rule="evenodd" clip-rule="evenodd" d="M791.648 124.088L1022.52 272.722L814.87 435.984L779.545 414.64C806.516 368.672 821.98 315.137 821.98 257.99C821.98 210.033 811.09 164.62 791.648 124.088ZM709.916 90.8539L589.657 189.367C600.439 201.434 608.42 216.033 612.587 232.157H770.295C764.936 178.543 743.109 129.745 709.916 90.8539ZM548.102 223.408L512 252.982L556.867 280.092C560.154 273.43 562 265.931 562 258C562 244.577 556.711 232.389 548.102 223.408ZM602.887 307.898L736.129 388.407C754.54 357.144 766.535 321.685 770.315 283.822H612.521C610.318 292.318 607.057 300.393 602.887 307.898Z" fill="white"/>
</g>
</g>
<defs>
<clipPath id="clip0_3_3">
<rect width="1024" height="1024" fill="white"/>
</clipPath>
<clipPath id="clip1_3_3">
<rect width="1024" height="1024" fill="white"/>
</clipPath>
</defs>
</svg>
