<svg xmlns="http://www.w3.org/2000/svg" viewBox="0 0 512 512" aria-hidden="true">
  <path fill="#fff" d="M77.869 448.93c0 13.312 1.623 25.652 5.275 35.961 4.951 13.636 13.475 23.457 26.299 26.297 2.598.488 5.277.812 8.117.812h277.364c.73 0 1.381 0 1.947-.082 26.463-1.703 37.258-29.219 37.258-62.988l11.121-269.324H66.748L77.869 448.93Zm253.66-209.258h52.68v212.262h-52.68V239.672Zm-101.871 0h52.682v212.262h-52.682V239.672Zm-101.869 0h52.762v212.262h-52.762V239.672Z"/>
  <path fill="#fff" d="M368.666 89.289c.078-2.028.242-4.059.242-6.09v-5.598c0-42.777-34.822-77.602-77.6-77.602h-70.701c-42.778 0-77.6 34.824-77.6 77.602v5.598c0 2.031.162 4.062.326 6.09H28.721v62.582h454.558V89.289H368.666Zm-48.461-6.09c0 2.113-.242 4.141-.648 6.09H192.361c-.406-1.949-.65-3.977-.65-6.09v-5.598c0-15.91 12.986-28.898 28.897-28.898h70.701c15.99 0 28.896 12.988 28.896 28.898v5.598Z"/>
</svg>
